<?xml version="1.0" encoding="UTF-8" standalone="no"?>
<!DOCTYPE svg PUBLIC "-//W3C//DTD SVG 1.1//EN" "http://www.w3.org/Graphics/SVG/1.1/DTD/svg11.dtd">
<svg xmlns="http://www.w3.org/2000/svg" version="1.1" viewBox="0.00 0.00 1774.00 1773.00">
<path fill="#a62426" d="
  M 726.91 1024.66
  Q 720.06 1028.09 712.37 1027.96
  C 694.85 1027.65 680.74 1015.69 678.45 998.08
  Q 677.88 993.70 679.25 984.13
  Q 689.19 914.61 696.30 823.90
  Q 705.43 707.46 709.28 600.72
  C 709.67 589.73 710.92 582.13 717.51 574.37
  C 735.32 553.41 770.18 561.63 776.63 588.73
  Q 777.85 593.85 777.27 607.66
  Q 773.75 691.92 768.33 773.25
  Q 762.88 855.21 755.04 927.34
  Q 750.61 968.21 745.87 998.82
  Q 743.12 1016.55 726.91 1024.66
  Z"
/>
<path fill="#a62426" d="
  M 1300.09 1054.26
  Q 1257.65 1073.50 1207.20 1089.06
  C 1194.44 1093.00 1180.37 1088.76 1171.67 1078.57
  C 1158.35 1062.97 1161.89 1039.49 1178.81 1028.10
  Q 1183.01 1025.28 1191.89 1022.51
  C 1225.84 1011.93 1260.94 998.56 1291.47 982.56
  Q 1302.32 976.87 1314.10 968.90
  C 1331.29 957.28 1347.47 941.86 1350.48 921.08
  C 1352.97 903.92 1349.21 887.18 1342.92 870.99
  Q 1332.89 845.15 1316.49 822.05
  C 1313.77 818.22 1311.80 812.64 1311.27 807.88
  C 1307.96 778.31 1340.10 758.59 1364.89 775.81
  Q 1370.13 779.45 1376.67 789.30
  Q 1402.63 828.43 1413.58 868.19
  C 1417.66 883.01 1419.92 899.53 1419.19 915.70
  Q 1416.92 965.95 1381.10 1001.67
  C 1358.65 1024.06 1329.46 1040.94 1300.09 1054.26
  Z"
/>
<path fill="#a62426" d="
  M 969.86 951.51
  A 0.23 0.23 0.0 0 0 970.08 951.83
  C 993.75 951.55 1018.87 946.90 1040.35 936.91
  C 1074.02 921.26 1096.42 893.01 1108.52 858.16
  Q 1115.72 837.44 1117.27 817.74
  Q 1117.82 810.77 1119.33 806.44
  C 1128.57 780.05 1163.46 775.67 1179.35 798.21
  Q 1185.06 806.31 1185.31 815.43
  Q 1185.54 823.95 1183.97 834.54
  C 1175.22 893.62 1146.90 948.19 1097.83 982.19
  C 1050.42 1015.03 992.13 1023.60 935.04 1018.90
  Q 934.49 1018.86 934.19 1019.32
  C 890.30 1086.58 832.26 1143.35 769.55 1194.30
  Q 756.67 1204.77 753.52 1206.38
  C 743.93 1211.30 732.61 1211.63 723.02 1207.08
  C 703.55 1197.84 697.74 1173.59 710.00 1156.33
  Q 712.89 1152.26 721.08 1145.81
  Q 750.17 1122.92 779.60 1095.49
  C 810.44 1066.75 838.78 1036.27 862.94 1003.02
  A 0.33 0.32 -58.9 0 0 862.82 1002.53
  C 839.76 991.55 821.19 973.53 814.61 948.68
  C 807.95 923.51 815.84 896.77 828.79 875.06
  Q 844.53 848.65 866.26 826.69
  C 884.48 808.28 906.90 792.65 931.48 786.02
  Q 954.22 779.88 971.54 793.77
  C 979.76 800.36 984.56 809.66 986.87 820.22
  C 996.30 863.46 986.62 910.73 969.86 951.51
  Z
  M 903.93 932.85
  Q 917.93 901.37 921.81 868.96
  Q 921.99 867.45 920.88 868.48
  Q 900.32 887.55 886.56 911.08
  C 883.78 915.84 881.62 921.14 880.45 926.63
  Q 879.23 932.37 883.77 935.97
  Q 890.02 940.93 898.53 943.80
  A 0.48 0.48 0.0 0 0 899.12 943.55
  Q 901.59 938.11 903.93 932.85
  Z"
/>
<path fill="#a62426" d="
  M 368.35 1148.86
  C 460.16 1082.29 530.04 989.89 557.16 879.53
  Q 562.41 858.18 564.21 835.42
  Q 565.02 825.28 566.67 820.95
  C 572.19 806.49 586.18 797.51 601.77 799.07
  C 614.16 800.30 624.85 807.93 629.80 819.39
  C 633.01 826.83 632.81 833.74 632.11 841.58
  Q 629.65 869.23 622.03 899.73
  C 604.01 971.85 568.93 1039.21 521.81 1097.22
  Q 473.37 1156.84 408.05 1204.11
  C 392.82 1215.12 371.46 1211.02 360.70 1196.00
  C 349.84 1180.84 353.54 1159.60 368.35 1148.86
  Z"
/>
<path fill="#a62426" d="
  M 1114.52 1055.28
  C 1135.47 1065.23 1140.05 1092.94 1124.10 1109.50
  Q 1117.02 1116.85 1106.92 1119.09
  Q 1038.27 1134.33 967.61 1139.21
  Q 953.10 1140.21 942.64 1131.58
  C 922.09 1114.64 928.02 1082.43 952.80 1073.23
  Q 957.23 1071.59 967.84 1070.89
  Q 1025.62 1067.09 1093.85 1052.39
  Q 1103.89 1050.23 1114.52 1055.28
  Z"
/>
</svg>
