<?xml version="1.0" encoding="UTF-8" standalone="no"?>
<svg xmlns="http://www.w3.org/2000/svg" version="1.1" viewBox="0.00 0.00 820.00 213.00">
  <path fill="#131b1f" d="   M 768.06 4.00   Q 775.03 4.01 777.40 4.11   Q 777.94 4.14 777.94 4.68   L 777.94 41.04   A 0.58 0.57 0.0 0 0 778.52 41.61   L 815.57 41.61   A 0.55 0.55 0.0 0 1 816.12 42.16   Q 816.12 46.57 816.12 51.31   Q 816.12 56.06 816.12 60.47   A 0.55 0.55 0.0 0 1 815.57 61.02   L 778.52 61.02   A 0.58 0.57 0.0 0 0 777.94 61.59   L 777.94 97.95   Q 777.94 98.49 777.40 98.52   Q 775.03 98.62 768.05 98.62   Q 761.08 98.62 758.71 98.52   Q 758.17 98.49 758.17 97.95   L 758.17 61.59   A 0.58 0.57 -0.0 0 0 757.59 61.02   L 720.54 61.02   A 0.55 0.55 0.0 0 1 719.99 60.47   Q 719.99 56.06 719.99 51.31   Q 719.99 46.57 719.99 42.16   A 0.55 0.55 0.0 0 1 720.54 41.61   L 757.59 41.61   A 0.58 0.57 0.0 0 0 758.17 41.04   L 758.17 4.68   Q 758.17 4.14 758.71 4.11   Q 761.08 4.01 768.06 4.00   Z"></path>
  <path fill="#131b1f" d="   M 623.91 19.95   Q 624.09 19.95 624.24 20.10   Q 647.95 43.65 671.63 67.15   A 0.27 0.26 40.5 0 1 671.66 67.49   L 660.10 82.64   Q 659.82 83.02 659.48 82.69   Q 641.85 65.16 624.19 47.65   Q 624.13 47.59 624.07 47.58   Q 623.99 47.56 623.90 47.56   Q 623.82 47.56 623.74 47.58   Q 623.68 47.59 623.62 47.65   Q 605.96 65.16 588.33 82.69   Q 587.99 83.02 587.71 82.64   L 576.15 67.48   A 0.27 0.26 -40.5 0 1 576.18 67.14   Q 599.86 43.65 623.57 20.10   Q 623.72 19.95 623.91 19.95   Z"></path>
  <path fill="#131b1f" d="   M 113.42 146.02   Q 119.19 139.14 122.08 132.10   Q 123.13 129.55 124.39 126.79   Q 124.63 126.25 125.02 126.70   C 126.97 128.96 128.83 131.92 131.01 133.37   Q 135.02 136.05 140.57 135.34   C 148.04 134.38 151.46 128.20 152.70 121.51   Q 155.01 109.03 152.75 96.26   C 151.44 88.83 147.90 81.49 139.21 81.13   C 123.05 80.46 122.81 101.55 123.29 112.96   Q 123.46 117.25 123.00 120.10   Q 120.69 134.38 111.42 144.69   Q 101.82 155.38 86.70 155.60   Q 81.66 155.67 41.75 155.67   Q 38.58 155.67 33.36 154.52   C 14.32 150.34 4.36 136.30 4.35 117.31   Q 4.34 108.95 4.33 32.61   A 0.62 0.61 0.0 0 1 4.95 32.00   L 26.28 32.00   A 0.55 0.55 0.0 0 1 26.83 32.54   Q 26.84 44.57 26.65 114.25   Q 26.63 121.34 27.69 124.53   C 30.28 132.35 37.38 134.08 44.73 134.10   Q 65.18 134.17 85.63 134.12   C 93.69 134.10 97.43 128.18 99.53 120.77   Q 100.25 118.23 100.37 111.21   C 100.60 97.19 101.81 81.23 112.43 70.68   C 120.74 62.43 133.05 60.06 144.49 61.62   Q 160.21 63.76 169.14 77.48   C 176.99 89.54 177.94 105.69 176.25 120.03   C 175.12 129.64 171.81 139.32 165.00 146.06   C 156.62 154.36 144.29 156.64 132.75 155.30   Q 122.15 154.06 113.46 146.55   A 0.38 0.37 -49.8 0 1 113.42 146.02   Z"></path>
  <path fill="#131b1f" d="   M 283.82 132.48   C 289.05 130.27 291.40 124.52 291.47 119.22   Q 291.65 106.05 291.53 83.97   A 0.52 0.52 0.0 0 1 292.05 83.45   L 313.00 83.45   Q 313.55 83.45 313.56 84.00   Q 313.64 107.48 313.48 120.50   C 313.32 133.21 307.80 145.57 296.28 151.24   Q 286.90 155.85 275.52 155.78   Q 234.67 155.52 232.28 155.46   Q 221.68 155.20 213.04 150.20   C 201.46 143.52 196.10 131.11 196.12 117.58   Q 196.16 86.43 196.11 32.60   Q 196.11 32.00 196.71 32.00   L 217.55 32.00   Q 218.14 32.00 218.14 32.59   Q 218.02 95.79 218.00 108.44   Q 217.98 121.60 218.85 124.45   Q 221.79 134.08 234.48 134.12   Q 265.60 134.21 276.99 134.08   Q 280.09 134.05 283.82 132.48   Z"></path>
  <path fill="#131b1f" d="   M 472.07 134.13   Q 472.34 134.13 472.34 133.86   C 471.78 112.58 461.75 94.98 439.76 90.32   Q 433.53 89.01 427.16 89.48   Q 426.42 89.53 426.42 88.79   L 426.42 69.26   Q 426.42 68.72 426.96 68.70   C 440.84 68.20 455.20 70.81 466.61 78.17   C 484.25 89.56 493.39 109.47 494.52 130.29   Q 495.20 142.89 494.71 155.16   Q 494.69 155.66 494.20 155.66   Q 378.75 155.70 368.52 155.60   Q 363.15 155.56 355.82 153.26   C 340.37 148.41 331.58 134.80 331.49 118.47   Q 331.35 91.46 331.46 32.55   Q 331.46 32.00 332.01 32.00   L 353.43 32.00   Q 353.91 32.00 353.91 32.48   Q 353.92 35.06 353.79 112.51   Q 353.78 119.55 353.81 119.99   Q 354.14 124.39 355.96 127.27   C 359.47 132.83 365.58 134.13 371.77 134.13   Q 425.00 134.14 472.07 134.13   Z"></path>
  <path fill="#ffa41b" d="   M 576.71 130.52   Q 582.42 135.29 588.32 140.37   Q 596.02 147.01 600.03 149.89   C 622.40 165.99 649.46 177.34 676.83 180.28   C 713.14 184.19 747.99 172.76 776.20 149.92   Q 785.08 142.73 799.13 130.52   A 0.53 0.52 -39.0 0 1 799.90 130.60   L 815.84 151.47   A 0.51 0.51 0.0 0 1 815.76 152.16   Q 803.90 162.41 794.09 170.59   Q 779.31 182.91 762.15 191.63   Q 712.18 217.03 657.47 205.34   Q 619.96 197.32 586.86 174.15   C 577.62 167.68 570.29 160.80 560.27 152.24   Q 559.82 151.86 560.18 151.39   L 576.03 130.59   A 0.48 0.47 38.8 0 1 576.71 130.52   Z"></path>
  <rect fill="#131b1f" x="264.53" y="181.08" width="25.26" height="25.26" rx="0.48"></rect>
  <rect fill="#131b1f" x="441.90" y="181.08" width="25.26" height="25.26" rx="0.48"></rect>
</svg>
