<svg width="90" height="62" viewBox="0 0 90 62" fill="none" xmlns="http://www.w3.org/2000/svg">
<g clip-path="url(#clip0_2098_2)">
<path d="M12.627 22.1772C9.93011 16.4588 7.21507 10.7439 4.53268 5.01642C3.58776 2.99783 4.7086 0.605619 6.81969 0.0161821C7.14796 -0.0763142 8.14003 0.255584 8.56987 0.30818C16.4302 1.27909 24.2906 2.25302 32.151 3.22997C32.2006 3.23602 32.2133 3.26141 32.1891 3.30615C32.1528 3.37023 32.1177 3.42645 32.0839 3.47482C27.6441 9.89031 23.2139 16.3125 18.7934 22.7412C16.9199 25.4654 13.9945 25.0736 12.627 22.1772Z" fill="#244336"/>
<path d="M33.507 5.51954C33.0366 4.52324 32.6842 3.7869 32.4496 3.31052C32.4327 3.27666 32.4436 3.26155 32.4823 3.26517L62.6796 7.01218C62.7425 7.01943 62.7509 7.04543 62.705 7.09017C62.6197 7.17178 62.4982 7.26065 62.4347 7.35315C58.0372 13.7481 53.6403 20.1436 49.2441 26.5398C48.2828 27.9381 46.5363 28.912 44.8604 27.8982C43.7505 27.2272 43.2735 26.1571 42.6006 24.737C39.5682 18.3324 36.537 11.9266 33.507 5.51954Z" fill="#244336"/>
<path d="M63.7943 8.19493C63.567 7.7125 63.3499 7.34553 63.1432 7.09404C63.1238 7.06986 63.1293 7.05958 63.1595 7.06321C71.0138 8.04379 78.8693 9.01591 86.7261 9.97956C87.4963 10.0751 88.0398 10.2117 88.3566 10.3894C89.6987 11.1421 90.1775 12.9576 89.851 14.3577C89.7446 14.8123 89.4448 15.3994 88.9514 16.1188C85.9916 20.4353 83.0274 24.7487 80.0591 29.0592C78.9147 30.7223 77.2878 32.2131 75.2185 30.8547C74.5426 30.4098 74.036 29.8324 73.6986 29.1227C70.3929 22.1486 67.0915 15.1727 63.7943 8.19493Z" fill="#244336"/>
<path d="M1.97166 57.6705C1.14947 57.2557 0.601139 56.621 0.326673 55.7661C0.208785 55.3979 -0.0705173 54.7904 0.0165381 54.2934C0.130798 53.6441 0.509851 52.8788 0.908855 52.2277C3.88808 47.3707 6.87214 42.5168 9.86104 37.6659C10.2214 37.0819 10.7135 36.6133 11.3374 36.2603C13.3433 35.1286 15.1497 36.3074 16.1689 38.0485C20.2061 44.9513 24.2397 51.8559 28.2696 58.7623C28.3047 58.8227 28.2878 58.8517 28.2188 58.8493C19.9969 58.5833 11.7745 58.2913 3.55135 57.9733C2.84523 57.9467 2.31867 57.8458 1.97166 57.6705Z" fill="#244336"/>
<path d="M43.5497 36.4885C45.3216 35.5508 47.2677 36.9963 48.1654 38.5452C52.3126 45.7067 56.4641 52.8471 60.6198 59.9662C60.6427 60.0049 60.6319 60.0231 60.5871 60.0207L29.0785 58.8944C28.9951 58.8907 28.9758 58.8539 29.0205 58.7837C33.2656 51.8749 37.5235 44.9474 41.794 38.0011C42.1483 37.4243 42.7335 36.9202 43.5497 36.4885Z" fill="#244336"/>
<path d="M89.8684 56.6181C90.3273 58.2576 89.5583 60.0767 87.9986 60.8656C87.7205 61.0071 87.3874 61.0748 86.9992 61.0688C84.8083 61.0361 82.3454 60.7949 80.4411 60.7278C74.0014 60.4981 67.5412 60.2647 61.0604 60.0277C60.954 60.0229 60.9286 59.9751 60.9842 59.8844C65.2088 53.0155 69.4461 46.1212 73.6961 39.2015C74.5521 37.805 76.3531 36.8184 77.9509 37.5239C79.2441 38.0952 79.8371 39.158 80.6823 40.6053C83.3677 45.2096 86.0525 49.815 88.7367 54.4217C89.3993 55.5571 89.7765 56.2892 89.8684 56.6181Z" fill="#244336"/>
</g>
<defs>
<clipPath id="clip0_2098_2">
<rect width="90" height="62" fill="white"/>
</clipPath>
</defs>
</svg>
