<?xml version="1.0" encoding="UTF-8"?>
<svg xmlns="http://www.w3.org/2000/svg" xmlns:xlink="http://www.w3.org/1999/xlink" version="1.1" id="Layer_1" x="0px" y="0px" viewBox="0 0 2000 1200" style="enable-background:new 0 0 2000 1200;" xml:space="preserve">
<style type="text/css">
	.st0{fill:#172C55;}
	.st1{opacity:0.24;fill:#606060;}
	.st2{fill:url(#SVGID_1_);}
	.st3{fill:#00E261;}
	.st4{fill-rule:evenodd;clip-rule:evenodd;fill:#00E261;}
	.st5{fill:#FFFFFF;}
	.st6{fill:#272B33;stroke:#1D1D1B;stroke-width:0.3398;stroke-miterlimit:10;}
	.st7{fill:#0093D5;}
	.st8{fill:#606060;}
	.st9{fill:#21B466;}
</style>
<g>
	<path class="st3" d="M818.46,767.13c-4.43-4.43-9.58-7.91-15.43-10.45c-5.86-2.53-12.11-3.8-18.76-3.8   c-6.65,0-12.91,1.27-18.75,3.8c-5.86,2.54-11,6.02-15.43,10.45c-4.44,4.44-7.92,9.58-10.44,15.43c-2.54,5.86-3.8,12.11-3.8,18.76   c0,6.65,1.26,12.9,3.8,18.75c2.53,5.86,6,11,10.44,15.43c4.43,4.44,9.57,7.92,15.43,10.44c5.85,2.54,12.1,3.8,18.75,3.8   c6.64,0,12.89-1.26,18.76-3.8c5.85-2.53,10.99-6.01,15.43-10.44c4.43-4.43,7.91-9.57,10.45-15.43c2.53-5.85,3.8-12.11,3.8-18.75   c0-6.65-1.27-12.89-3.8-18.76C826.37,776.71,822.89,771.57,818.46,767.13"></path>
	<rect x="1590.18" y="350.26" class="st3" width="93.06" height="376.42"></rect>
	<path class="st3" d="M964.72,433.07c4.43,4.44,9.57,7.91,15.44,10.44c5.85,2.54,12.1,3.8,18.75,3.8c6.64,0,12.89-1.26,18.76-3.8   c5.85-2.53,10.99-6.01,15.43-10.44c4.43-4.43,7.91-9.57,10.45-15.43c2.53-5.85,3.8-12.11,3.8-18.75c0-6.65-1.27-12.89-3.8-18.76   c-2.54-5.85-6.02-10.99-10.45-15.43c-4.43-4.43-9.58-7.91-15.43-10.44c-5.86-2.53-12.11-3.8-18.76-3.8c-6.64,0-12.9,1.27-18.75,3.8   c-5.86,2.53-11.01,6.01-15.44,10.44c-4.43,4.44-7.91,9.58-10.44,15.43c-2.54,5.86-3.8,12.11-3.8,18.76c0,6.65,1.26,12.9,3.8,18.75   C956.81,423.51,960.29,428.64,964.72,433.07"></path>
	<path class="st3" d="M707.8,767.13c-4.44-4.43-9.58-7.91-15.43-10.45c-5.86-2.53-12.11-3.8-18.75-3.8c-6.65,0-12.91,1.27-18.75,3.8   c-5.86,2.54-11,6.02-15.43,10.45c-4.44,4.44-7.92,9.58-10.45,15.43c-2.54,5.86-3.8,12.11-3.8,18.76c0,6.65,1.26,12.9,3.8,18.75   c2.52,5.86,6,11,10.45,15.43c4.43,4.44,9.57,7.92,15.43,10.44c5.85,2.54,12.1,3.8,18.75,3.8c6.64,0,12.89-1.26,18.75-3.8   c5.85-2.53,10.99-6.01,15.43-10.44c4.43-4.43,7.91-9.57,10.44-15.43c2.53-5.85,3.81-12.11,3.81-18.75c0-6.65-1.27-12.89-3.81-18.76   C715.71,776.71,712.24,771.57,707.8,767.13"></path>
	<path class="st3" d="M597.15,767.13c-4.43-4.43-9.58-7.91-15.43-10.45c-5.86-2.53-12.11-3.8-18.75-3.8c-6.65,0-12.9,1.27-18.76,3.8   c-5.86,2.54-11,6.02-15.43,10.45c-4.44,4.44-7.92,9.58-10.45,15.43c-2.54,5.86-3.8,12.11-3.8,18.76c0,6.65,1.26,12.9,3.8,18.75   c2.53,5.86,6.01,11,10.45,15.43c4.43,4.44,9.57,7.92,15.43,10.44c5.85,2.54,12.11,3.8,18.76,3.8c6.64,0,12.89-1.26,18.75-3.8   c5.85-2.53,11-6.01,15.43-10.44c4.43-4.43,7.91-9.57,10.44-15.43c2.53-5.85,3.8-12.11,3.8-18.75c0-6.65-1.27-12.89-3.8-18.76   C605.06,776.71,601.58,771.57,597.15,767.13"></path>
	<path class="st3" d="M1466.58,468.58v112.86c0,12.03-0.88,21.76-2.61,29.2c-0.11,0.47-0.27,0.87-0.39,1.32h-0.01   c-2.32,5.4-5.35,10.11-9.12,14.13c-3.77,4.02-8.27,7.16-13.49,9.41c-4.92,2.13-10.11,3.21-15.56,3.34h-259.74   c-7.6-0.75-11.84-2.81-11.84-2.81c-4.75-1.58-9.02-4.27-12.81-8.07c-4.43-4.44-7.52-10.37-9.26-17.8   c-1.14-4.9-1.88-10.88-2.27-17.75l-0.02-124.48l-86.52,0.03v120.78c0,12.02-0.87,21.75-2.61,29.2c-0.06,0.25-0.14,0.49-0.22,0.72   c-0.06,0.2-0.34,0.99-0.43,1.18c-2.28,5.16-5.23,9.67-8.87,13.54c-3.77,4.02-8.27,7.15-13.5,9.42c-4.92,2.13-10.1,3.21-15.55,3.34   h-3.38c-5.45-0.13-10.64-1.21-15.55-3.34c-5.22-2.26-9.72-5.4-13.49-9.42c-3.77-4.02-6.81-8.72-9.12-14.13h-0.01   c-0.12-0.45-0.28-0.86-0.39-1.32c-1.74-7.45-2.61-17.18-2.61-29.2V467.92l-86.53-0.03l-0.02,138.95c-0.19,1-0.35,2.07-0.57,3   c-1.74,7.43-4.83,13.36-9.25,17.81c-3.8,3.79-8.07,6.48-12.82,8.07c0,0-4.24,2.06-11.84,2.81H528.82   c-5.29,0.38-9.91,1.35-14.03,2.67c-26.94,7.79-31.6,32.16-31.6,32.16l-13.64,53.32h347.43l-0.04-0.01c17.1,0,31.73-3.72,43.92-9.26   c12.18-5.54,22.56-13.38,31.1-23.51c1.25-1.48,2.34-3.02,3.45-4.56c19.41,22.52,48.51,36.86,81.09,36.86l21.32,0.2h4.54l21.33-0.2   c32.79,0,62.06-14.55,81.46-37.32c1.46,2.16,3.04,4.26,4.77,6.31c8.55,10.13,18.92,17.97,31.1,23.51   c12.18,5.53,26.82,8.31,43.92,8.31l-0.04,0.01l262.42-0.19c51.53,0,94.44-35.82,103.87-83.24l0.18-0.14   c0.82-4.51,1.35-9.12,1.6-13.87c0.01-0.13,0.02-0.27,0.03-0.4c0.08-1.63,0.11-3.28,0.12-4.95c0-0.09,0.01-0.18,0.01-0.27v-0.33   l-0.02-155.01L1466.58,468.58z"></path>
	<g>
		<path class="st3" d="M403.16,350.26l-60.22,231.27h50.06c24.23,0,45.39-16.39,51.44-39.85l49.94-191.42H403.16z"></path>
		<path class="st4" d="M372.99,614.23c31.03,0,56.22,25.19,56.22,56.22s-25.19,56.23-56.22,56.23c-31.03,0-56.23-25.2-56.23-56.23    S341.95,614.23,372.99,614.23z"></path>
		<polygon class="st3" points="345.39,354.91 345.51,354.91 352.49,374.35 355.58,374.35 362.57,354.91 362.69,354.91     362.69,374.35 367.93,374.35 367.93,350.26 359.47,350.26 354.04,364.51 348.62,350.26 340.14,350.26 340.14,374.35     345.39,374.35   "></polygon>
		<polygon class="st3" points="324.1,374.35 329.89,374.35 329.89,354.91 337.22,354.91 337.22,350.26 316.76,350.26 316.76,354.91     324.1,354.91   "></polygon>
	</g>
</g>
</svg>
